<?xml version="1.0" encoding="utf-8"?>
<!-- Generator: Adobe Illustrator 23.0.2, SVG Export Plug-In . SVG Version: 6.00 Build 0)  -->
<svg version="1.1" id="Capa_1" xmlns="http://www.w3.org/2000/svg" xmlns:xlink="http://www.w3.org/1999/xlink" x="0px" y="0px"
	 viewBox="0 0 268 50" style="enable-background:new 0 0 268 50;" xml:space="preserve">
<style type="text/css">
	.st0{fill:none;stroke:#898D8D;stroke-linecap:square;}
	.st1{fill-rule:evenodd;clip-rule:evenodd;fill:#00B140;}
	.st2{fill-rule:evenodd;clip-rule:evenodd;fill:#898D8D;}
	.st3{enable-background:new    ;}
	.st4{fill:#898D8D;}
</style>
<g>
	<path class="st0" d="M209.8,6.8v35.1"/>
	<path class="st1" d="M66.3,27.4c0.3,0.4,0.6,0.6,1.1,0.6c0.7,0,1.1-0.7,1.1-0.7L80,12.7c0.9-1,1.9-0.2,1.9-0.2
		c0.9,0.9,0.2,1.8,0.2,1.8l-2.6,3.3v0c-0.5,0.5-0.5,1.2-0.1,1.7v0l2.6,3.3l8.1-10.3L87,8.2l-0.6-0.8c-0.5-0.8-1.7-0.9-1.7-0.9h-4.9
		c-0.8,0-1.5,0.3-2,0.9L64.2,24.8L66.3,27.4L66.3,27.4z M65.7,18.5l-3.3-4.2c-0.7-1.1,0.3-1.8,0.3-1.8c1.2-0.7,1.9,0.4,1.9,0.4
		l2.7,3.4l3.2-4.1l-3.7-4.7c-0.9-1.3-2.2-1.1-2.2-1.1h-4.4c-1.4,0-2,0.9-2,0.9l-3.9,4.9l8.1,10.3L65.7,18.5L65.7,18.5z"/>
	<path class="st1" d="M78.3,22c0,0-0.4-0.6-1.1-0.6c-0.8,0-1.1,0.5-1.1,0.5L64.5,36.8c-0.9,1-1.9,0.2-1.9,0.2
		c-0.9-0.9-0.2-1.8-0.2-1.8l2.6-3.3l0,0c0.4-0.5,0.5-1.2,0.1-1.7v0l-2.6-3.3l-8.2,10.4l4.5,5.7l7.1,0l14.4-18.3L78.3,22L78.3,22z
		 M78.9,31l3.3,4.2c0.8,1-0.2,1.8-0.2,1.8c-1.3,0.8-2-0.4-2-0.4l-2.8-3.5L74,37.2l4.6,5.9l7.1,0l4.5-5.8l-8.1-10.4
		C82.1,26.9,78.9,31,78.9,31z M90.2,21.5c-1.8,0-3.3,1.5-3.3,3.2c0,1.8,1.5,3.2,3.3,3.2s3.3-1.5,3.3-3.2C93.5,23,92,21.5,90.2,21.5
		 M90.2,26.5c-1,0-1.7-0.8-1.7-1.7c0-1,0.8-1.7,1.7-1.7s1.7,0.8,1.7,1.7C91.9,25.7,91.1,26.5,90.2,26.5 M72.3,6.5
		c1.8,0,3.3-1.5,3.3-3.2c0-1.8-1.5-3.2-3.3-3.2S69,1.5,69,3.2C69,5,70.5,6.5,72.3,6.5 M72.3,1.5c1,0,1.7,0.8,1.7,1.7S73.2,5,72.3,5
		c-1,0-1.7-0.8-1.7-1.7C70.5,2.3,71.3,1.5,72.3,1.5 M57.6,24.8c0-1.8-1.5-3.2-3.3-3.2c-1.8,0-3.3,1.5-3.3,3.2c0,1.8,1.5,3.2,3.3,3.2
		C56.2,28,57.6,26.5,57.6,24.8 M52.6,24.8c0-1,0.8-1.7,1.7-1.7c1,0,1.7,0.8,1.7,1.7c0,1-0.8,1.7-1.7,1.7
		C53.4,26.5,52.6,25.7,52.6,24.8"/>
	<path class="st2" d="M36.9,4.1v24.2c0,2.9-0.9,5.6-2.8,8c-1.5,2-3.6,3.7-6.2,5.3c-4,2.4-8.1,3.5-9,3.7c-0.9-0.2-5-1.3-9-3.7
		c-2.6-1.5-4.7-3.3-6.2-5.3c-1.8-2.4-2.8-5.1-2.8-8.1V4.1H36.9z M37.9,3.2H0v25.1c0,13.8,18.9,17.9,18.9,17.9h0
		c0,0,18.9-4.2,18.9-17.9L37.9,3.2L37.9,3.2z"/>
	<path class="st2" d="M23.5,11.3V8.9h-2.4v2.2h-0.9V9h-2.5v2.2h-0.9V9h-2.4v2.3l1.2,2c0,0.1,0.1,0.2,0.1,0.2l0,10.6h1.1l0-3.8
		c0-0.9,1-1.7,2.1-1.7s2.1,0.8,2.1,1.7l0,3.8h1.2l0-4c0,0,0,0,0-0.1v-2l0,0l0-1.4v-0.6l0-2.4c0-0.1,0-0.2,0.1-0.2L23.5,11.3
		L23.5,11.3z M14.7,24.3l0-3.5l-0.4,0.3c-0.2,0.1-0.4,0.1-0.5,0l-0.5-0.3c0,0,0,0,0,0l0,1.3c0,0.1-0.1,0.3-0.2,0.4
		c0.1,0,0.1,0,0.1,0.1c0.6,0.5,0.7,1.2,0.5,1.8C13.8,24.3,14.7,24.3,14.7,24.3z"/>
	<path class="st2" d="M18.9,19.5c-0.7,0-1.2,0.5-1.2,0.8l0,3.8h2.4l0-3.8C20.1,20,19.6,19.5,18.9,19.5"/>
	<path class="st2" d="M4.7,24.3c-0.1-0.3-0.2-0.7-0.3-1.1c-0.1-0.7-0.1-1.4-0.1-1.4c0-0.2,0.1-0.4,0.3-0.4l1-0.3l-1.2-0.8
		c-0.1-0.1-0.2-0.2-0.2-0.4v-1.3c0-0.2,0.1-0.3,0.2-0.4L5,18v-0.4l-0.4-0.2c-0.2-0.1-0.3-0.2-0.3-0.4l0-1.5c0-0.3,0.2-0.5,0.5-0.5
		l1.4,0c0-0.4,0-0.9,0.1-1.3c0.1-0.6,0.5-1.2,0.6-1.5l-0.1-0.5c0-0.3,0.1-0.5,0.4-0.5c0,0,0,0,0.1,0h0.8c0.1,0,0.2,0,0.2,0.1
		l1.9,1.2h0.9c0.3,0,0.5,0.2,0.5,0.5c0,0,0,0,0,0l-0.1,1.5c0,0.1-0.1,0.2-0.2,0.3l0.6,0c0.1,0,0.2,0.1,0.3,0.1l0.3,0.3l0.2-0.2
		l0.3-0.7c0.1-0.2,0.2-0.3,0.4-0.3h1.2v-0.3l-1.2-2c0-0.1-0.1-0.2-0.1-0.2V8.5c0-0.3,0.2-0.5,0.5-0.5H24c0.3,0,0.5,0.2,0.5,0.5v2.9
		c0,0.1,0,0.2-0.1,0.2l-1.2,2v0.3h1.2c0.2,0,0.3,0.1,0.4,0.3l0.3,0.7l0.2,0.2l0.3-0.3c0.1-0.1,0.2-0.1,0.3-0.1l0.6,0
		c-0.1-0.1-0.1-0.2-0.1-0.3l-0.1-1.5c0-0.3,0.2-0.5,0.4-0.5c0,0,0,0,0,0h0.9l1.9-1.2c0.1,0,0.2-0.1,0.2-0.1h0.8
		c0.3,0,0.5,0.2,0.5,0.5c0,0,0,0,0,0.1L31,12.1c0.2,0.3,0.5,0.9,0.6,1.5c0.1,0.4,0.1,0.9,0.1,1.3l1.4,0c0.3,0,0.5,0.2,0.5,0.5l0,1.5
		c0,0.2-0.1,0.4-0.3,0.4l-0.4,0.2V18l0.4,0.2c0.2,0.1,0.3,0.2,0.3,0.4v1.3c0,0.1-0.1,0.3-0.2,0.4l-1.1,0.8l1,0.3
		c0.2,0.1,0.3,0.2,0.3,0.4c0,0,0,0.7-0.1,1.4c-0.1,0.4-0.2,0.7-0.3,1.1h1.7l0,0V6.4H3v17.9H4.7z"/>
	<path class="st2" d="M24.7,22.5c0,0,0.1-0.1,0.1-0.1c-0.1-0.1-0.2-0.2-0.2-0.4l0-1.3l0,0l-0.5,0.3c-0.2,0.1-0.3,0.1-0.5,0l-0.4-0.2
		l0,3.5h0.9C24,23.8,24,23,24.7,22.5 M30.8,33.9c-0.3,0-0.5-0.2-0.5-0.5c0,0,0,0,0,0v-3c0-0.2-0.1-0.5-0.3-0.7
		c-0.3-0.3-0.6-0.4-1-0.4c-0.7,0-1.1,0.6-1.2,1.1v3c0,0.3-0.2,0.5-0.5,0.5h-2.8c-0.3,0-0.5-0.2-0.5-0.5c0,0,0,0,0,0v-3
		c0-0.2-0.1-0.5-0.3-0.7c-0.3-0.3-0.6-0.4-1-0.4c-0.3,0-0.6,0.1-0.8,0.3l2.3,11.5c3.2-1.4,7-3.7,9-7.3H30.8z M20.2,25.3h-2.6
		l-3.2,16.2c0,0,0,0,0,0.1c2.2,0.9,4,1.4,4.5,1.5c0.5-0.2,2.3-0.6,4.5-1.5c0,0,0-0.1,0-0.1L20.2,25.3L20.2,25.3z M15.8,29.6
		c-0.2-0.2-0.5-0.3-0.8-0.3h0c-0.5,0-0.8,0.2-0.9,0.4c-0.2,0.2-0.3,0.5-0.3,0.7v3c0,0.3-0.2,0.5-0.5,0.5h-2.8
		c-0.3,0-0.5-0.2-0.5-0.5c0,0,0,0,0,0v-3c-0.1-0.5-0.5-1.1-1.2-1.1h0c-0.5,0-0.8,0.2-0.9,0.4c-0.2,0.2-0.3,0.5-0.3,0.7v3
		c0,0.3-0.2,0.5-0.5,0.5H4.5c2,3.6,5.8,5.9,9,7.3C13.6,41.2,15.8,29.6,15.8,29.6z"/>
	<path class="st2" d="M34.8,25.3H21.2l0.7,3.4c0.3-0.2,0.6-0.2,1-0.3c0.6,0,1.2,0.2,1.6,0.6c0.4,0.4,0.6,0.9,0.6,1.4V33h1.8v-2.6
		l0,0c0.1-1.1,1-1.9,2.1-2c0.6,0,1.2,0.2,1.6,0.6c0.4,0.4,0.6,0.9,0.6,1.4V33h2.5c0.7-1.5,1-3.1,1-4.7L34.8,25.3L34.8,25.3 M6.6,33
		v-2.6c0-0.5,0.2-1,0.6-1.4c0.4-0.4,1-0.6,1.6-0.6c1.1,0,2,0.9,2.1,2V33h1.8v-2.6c0-0.5,0.2-1,0.6-1.4c0.4-0.4,1-0.6,1.6-0.6
		c0.3,0,0.7,0.1,1,0.2l0.7-3.4H3v3c0,1.8,0.4,3.3,1,4.7H6.6z M7.7,23.4h0.8c0.1,0.1,0.1,0.2,0.1,0.3l0,0.2c0,0.2,0,0.3-0.1,0.5H5.9
		c-0.4-0.3-0.6-1.3-0.6-2.1l1.2-0.4c0.2-0.1,0.3-0.2,0.3-0.4v-0.4c0-0.2-0.1-0.3-0.2-0.4l-1.3-0.9v-0.8l0.4-0.2
		C5.9,18.6,6,18.4,6,18.3v-1c0-0.2-0.1-0.4-0.3-0.4l-0.4-0.2v-0.8l1.2,0l0.6,0.9l0,1.3l-0.4,1.3C6.6,19.6,6.7,19.9,7,20
		c0,0,0.1,0,0.1,0h0.4c0.2,0,0.4-0.2,0.5-0.4c0-0.2,0.1-0.8,0.2-1.1c0.1-0.2,0.4-0.7,0.6-0.9c0.1-0.2,0.1-0.4,0-0.6l-1.6-1.8
		c0-0.3-0.1-0.9,0-1.4c0.1-0.5,0.5-1.1,0.6-1.3c0.1-0.1,0.1-0.2,0.1-0.3l0-0.2h0.1l1.9,1.2c0.1,0,0.2,0.1,0.2,0.1h0.5l0,0.7L10,14.2
		c-0.2,0.1-0.3,0.2-0.3,0.4l0,0.5c0,0.3,0.2,0.5,0.5,0.5l1.6,0l0.4,0.4c0.2,0.2,0.4,0.2,0.6,0c0,0,0.7-0.6,0.8-0.6l0.3-0.5h0.9v1.7
		c0,0-1.7,0.6-1.8,0.6c-0.1,0.1-0.2,0.6-0.1,0.7c0,0.1,0,0.2,0.2,0.3c0,0,0.5,0.4,0.6,0.4l0.5-0.5l0.7,0l0,1.6l-0.6,0.4l-2-1.3
		c-0.2-0.1-0.5-0.1-0.6,0.1l-0.3,0.4c-0.1,0.2-0.1,0.5,0,0.6l1.1,1l0,0.8l-1.1,0.5c-0.2,0.1-0.3,0.2-0.3,0.4v0.2
		c0,0.3,0.2,0.5,0.5,0.5h1.3c0.2,0.3,0.1,0.7,0,1H9.7c-0.1-0.1-0.2-0.3-0.2-0.5c0-0.1,0-0.1,0-0.2c0-0.3,0-0.6,0.1-0.8l0.7-0.9
		c0.1-0.1,0.1-0.2,0.1-0.3l0-0.4c0-0.3-0.2-0.5-0.4-0.5c-0.1,0-0.1,0-0.2,0l-1.2,0.5c-0.2,0.1-0.3,0.2-0.3,0.4l-0.1,0.5l-0.7,0.2
		c-0.2,0.1-0.3,0.2-0.3,0.4v0.2C7.2,23.2,7.4,23.4,7.7,23.4 M30.2,23.4h-0.8c-0.1,0.1-0.1,0.2-0.1,0.3c0,0.1,0,0.1,0,0.2
		c0,0.2,0,0.3,0.1,0.5H32c0.4-0.3,0.6-1.3,0.6-2.1l-1.2-0.4c-0.2-0.1-0.3-0.2-0.3-0.4v-0.4c0-0.2,0.1-0.3,0.2-0.4l1.3-0.9v-0.8
		l-0.4-0.2c-0.2-0.1-0.3-0.2-0.3-0.4v-1c0-0.2,0.1-0.4,0.3-0.4l0.4-0.2v-0.8l-1.2,0l-0.6,0.9l0,1.3l0.4,1.3c0,0.1,0,0.3-0.1,0.4
		C31,19.9,30.9,20,30.8,20h-0.4c-0.2,0-0.4-0.2-0.5-0.4c0-0.2-0.1-0.8-0.2-1.1c-0.1-0.2-0.4-0.7-0.6-0.9c-0.1-0.2-0.1-0.4,0-0.6
		l1.6-1.8c0-0.3,0.1-0.9,0-1.4c-0.1-0.5-0.5-1.1-0.6-1.3C30,12.4,30,12.3,30,12.1l0-0.2h-0.1l-1.9,1.2c-0.1,0-0.2,0.1-0.2,0.1h-0.5
		l0,0.7l0.6,0.2c0.2,0.1,0.3,0.2,0.3,0.4l0,0.5c0,0.3-0.2,0.5-0.5,0.5l-1.6,0L25.8,16c-0.2,0.2-0.4,0.2-0.6,0c0,0-0.7-0.6-0.8-0.6
		l-0.3-0.5h-0.9v1.7c0,0,1.7,0.6,1.8,0.6c0.1,0.1,0.2,0.6,0.2,0.7c0,0.1,0,0.2-0.2,0.3c0,0-0.5,0.4-0.6,0.4l-0.5-0.5l-0.7,0l0,1.6
		l0.6,0.4l2-1.3c0.2-0.1,0.5-0.1,0.6,0.1l0.3,0.4c0.1,0.2,0.1,0.5,0,0.6l-1.1,1l0,0.8l1.1,0.5c0.2,0.1,0.3,0.2,0.3,0.4v0.2
		c0,0.3-0.2,0.5-0.5,0.5h-1.3c-0.2,0.3-0.1,0.7,0,1h3.1c0.1-0.1,0.2-0.3,0.2-0.5c0-0.1,0-0.1,0-0.2c0-0.3,0-0.5-0.1-0.8l-0.7-0.9
		c-0.1-0.1-0.1-0.2-0.1-0.3l0-0.4c0-0.3,0.2-0.5,0.4-0.5c0.1,0,0.1,0,0.2,0l1.2,0.5c0.2,0.1,0.3,0.2,0.3,0.4l0.1,0.5l0.7,0.2
		c0.2,0.1,0.3,0.2,0.3,0.4v0.2C30.7,23.2,30.4,23.4,30.2,23.4 M103.4,19.3L103.4,19.3c0-1.8,1.3-3.3,3.2-3.3c1.1,0,1.8,0.3,2.4,0.9
		l-0.5,0.5c-0.5-0.4-1.1-0.7-2-0.7c-1.4,0-2.5,1.2-2.5,2.6v0c0,1.5,1,2.7,2.6,2.7c0.7,0,1.4-0.3,1.9-0.6v-1.6h-2V19h2.7v2.6
		c-0.7,0.6-1.6,1-2.6,1C104.7,22.6,103.4,21.1,103.4,19.3 M111.7,19.3L111.7,19.3c0-1.8,1.3-3.3,3.3-3.3c2,0,3.3,1.5,3.3,3.3v0
		c0,1.8-1.3,3.3-3.3,3.3C113,22.6,111.7,21,111.7,19.3 M117.5,19.3L117.5,19.3c0-1.5-1.1-2.7-2.5-2.7c-1.5,0-2.5,1.2-2.5,2.6v0
		c0,1.5,1.1,2.6,2.5,2.6S117.5,20.7,117.5,19.3 M120.9,16h2.7c0.7,0,1.3,0.2,1.7,0.6c0.3,0.3,0.4,0.6,0.4,1v0c0,0.8-0.5,1.3-1,1.5
		c0.8,0.2,1.4,0.7,1.4,1.5v0c0,1.1-0.9,1.8-2.3,1.8h-2.9C120.9,22.5,120.9,16,120.9,16z M125,17.7c0-0.6-0.5-1-1.4-1h-2v2.2h1.9
		C124.4,18.9,125,18.5,125,17.7L125,17.7z M123.6,19.5h-2v2.3h2.2c1,0,1.6-0.4,1.6-1.1v0C125.3,19.9,124.7,19.5,123.6,19.5z
		 M128.7,22.5h0.7V16h-0.7V22.5z M132.4,16h4.7v0.7h-3.9v2.2h3.5v0.7h-3.5v2.2h4v0.7h-4.7L132.4,16z M139.5,16h2.8
		c0.8,0,1.4,0.2,1.8,0.6c0.3,0.3,0.5,0.8,0.5,1.3v0c0,1.1-0.7,1.7-1.8,1.9l2,2.6h-0.9l-1.9-2.5h-1.8v2.5h-0.7V16z M142.2,19.3
		c1,0,1.7-0.5,1.7-1.3v0c0-0.8-0.6-1.3-1.6-1.3h-2v2.6C140.2,19.3,142.2,19.3,142.2,19.3z M147.2,16h0.7l4.1,5.1V16h0.7v6.4h-0.6
		l-4.2-5.3v5.3h-0.7L147.2,16z M155.3,19.3L155.3,19.3c0-1.8,1.3-3.3,3.3-3.3c2,0,3.3,1.5,3.3,3.3v0c0,1.8-1.3,3.3-3.3,3.3
		S155.3,21,155.3,19.3 M161.1,19.3L161.1,19.3c0-1.5-1.1-2.7-2.5-2.7c-1.5,0-2.5,1.2-2.5,2.6v0c0,1.5,1.1,2.6,2.5,2.6
		C160.1,21.9,161.1,20.7,161.1,19.3 M167.8,16h2.2c2,0,3.4,1.4,3.4,3.2v0c0,1.8-1.4,3.2-3.4,3.2h-2.2V16z M168.5,16.7v5.1h1.5
		c1.6,0,2.7-1.1,2.7-2.5v0c0-1.4-1-2.5-2.7-2.5L168.5,16.7L168.5,16.7z M175.8,16h4.7v0.7h-3.9v2.2h3.5v0.7h-3.5v2.2h4v0.7h-4.7
		L175.8,16z M186.3,16h0.7v5.8h3.6v0.7h-4.4V16z M195.1,16h0.7l2.9,6.5H198l-0.8-1.7h-3.5l-0.8,1.7h-0.7L195.1,16L195.1,16z
		 M196.9,20.1l-1.5-3.3l-1.5,3.3L196.9,20.1L196.9,20.1z M103.3,30.3L103.3,30.3c0-1.8,1.4-3.3,3.4-3.3c1.2,0,1.9,0.4,2.5,1l-0.9,1
		c-0.5-0.5-1-0.7-1.7-0.7c-1.1,0-1.9,0.9-1.9,2v0c0,1.1,0.8,2,1.9,2c0.7,0,1.2-0.3,1.7-0.8l0.9,0.9c-0.7,0.7-1.4,1.1-2.6,1.1
		C104.7,33.6,103.3,32.1,103.3,30.3 M110.4,33.5h1.4V27h-1.4V33.5z M113.5,30.7V27h1.4v3.6c0,1,0.5,1.6,1.4,1.6
		c0.9,0,1.4-0.5,1.4-1.5V27h1.4v3.6c0,1.9-1.1,2.9-2.8,2.9C114.5,33.6,113.5,32.6,113.5,30.7 M120.7,27h2.5c2,0,3.4,1.4,3.4,3.2v0
		c0,1.8-1.4,3.2-3.4,3.2h-2.5C120.7,33.5,120.7,27,120.7,27z M123.2,32.2c1.2,0,1.9-0.8,1.9-1.9v0c0-1.1-0.8-1.9-1.9-1.9h-1.1v3.9
		H123.2z M129.8,27h1.3l2.8,6.5h-1.5l-0.6-1.4h-2.7l-0.6,1.4H127L129.8,27L129.8,27z M131.3,30.8l-0.9-2.1l-0.9,2.1H131.3
		L131.3,30.8z M134.9,27h2.5c2,0,3.4,1.4,3.4,3.2v0c0,1.8-1.4,3.2-3.4,3.2h-2.5C134.9,33.5,134.9,27,134.9,27z M137.4,32.2
		c1.2,0,1.9-0.8,1.9-1.9v0c0-1.1-0.8-1.9-1.9-1.9h-1.1v3.9H137.4z M145,27h2.5c2,0,3.4,1.4,3.4,3.2v0c0,1.8-1.4,3.2-3.4,3.2H145
		C145,33.5,145,27,145,27z M147.5,32.2c1.2,0,1.9-0.8,1.9-1.9v0c0-1.1-0.8-1.9-1.9-1.9h-1.1v3.9H147.5z M152.3,27h4.9v1.3h-3.5v1.3
		h3v1.3h-3v1.3h3.5v1.3h-4.9L152.3,27z M161.3,27h1.5l1.7,2.7l1.7-2.7h1.5v6.4h-1.4v-4.2l-1.8,2.7h0l-1.8-2.7v4.2h-1.4L161.3,27z
		 M169.4,27h4.9v1.3h-3.5v1.3h3v1.3h-3v1.3h3.5v1.3h-4.9L169.4,27L169.4,27z M172.1,24.9l1.2,0.5l-1.2,1.1h-1.1
		C171.1,26.5,172.1,24.9,172.1,24.9z M177.5,30.2l-2.2-3.2h1.7l1.4,2.1l1.4-2.1h1.6l-2.2,3.1l2.2,3.3h-1.7l-1.4-2.2l-1.5,2.2h-1.6
		L177.5,30.2z M182.5,33.5h1.4V27h-1.4V33.5z M185.3,30.3L185.3,30.3c0-1.8,1.4-3.3,3.4-3.3c1.2,0,1.9,0.4,2.5,1l-0.9,1
		c-0.5-0.5-1-0.7-1.6-0.7c-1.1,0-1.9,0.9-1.9,2v0c0,1.1,0.8,2,1.9,2c0.7,0,1.2-0.3,1.7-0.8l0.9,0.9c-0.7,0.7-1.4,1.1-2.6,1.1
		C186.7,33.6,185.3,32.1,185.3,30.3 M191.9,30.3L191.9,30.3c0-1.8,1.4-3.3,3.4-3.3c2,0,3.4,1.5,3.4,3.3v0c0,1.8-1.4,3.3-3.4,3.3
		C193.4,33.6,191.9,32.1,191.9,30.3 M197.3,30.3L197.3,30.3c0-1.1-0.8-2-2-2s-1.9,0.9-1.9,2v0c0,1.1,0.8,2,2,2
		C196.5,32.3,197.3,31.4,197.3,30.3"/>
	<path class="st1" d="M72.3,43c-1.8,0-3.3,1.5-3.3,3.2c0,1.8,1.5,3.2,3.3,3.2c1.8,0,3.3-1.5,3.3-3.2C75.6,44.5,74.1,43,72.3,43
		 M72.3,48c-1,0-1.7-0.8-1.7-1.7s0.8-1.7,1.7-1.7c1,0,1.7,0.8,1.7,1.7C74,47.2,73.2,48,72.3,48"/>
	<g class="st3">
		<path class="st4" d="M221.3,17.5h-2v-1.3h5.4v1.3h-2v5.2h-1.4V17.5z"/>
		<path class="st4" d="M225.8,16.2h3c0.8,0,1.5,0.2,1.9,0.7c0.4,0.4,0.6,0.9,0.6,1.5v0c0,1-0.6,1.7-1.4,2l1.6,2.3h-1.7l-1.4-2.1h0
			h-1.1v2.1h-1.4V16.2z M228.7,19.4c0.7,0,1.1-0.4,1.1-0.9v0c0-0.6-0.4-0.9-1.1-0.9h-1.4v1.9H228.7z"/>
		<path class="st4" d="M234.8,16.2h1.3l2.8,6.6h-1.5l-0.6-1.5H234l-0.6,1.5H232L234.8,16.2z M236.3,20l-0.9-2.1l-0.9,2.1H236.3z
			 M235.9,14l1.2,0.5l-1.2,1.1h-1.1L235.9,14z"/>
		<path class="st4" d="M239.9,16.2h1.5l1.7,2.8l1.7-2.8h1.5v6.5H245v-4.2l-1.8,2.8h0l-1.8-2.8v4.2h-1.4V16.2z"/>
		<path class="st4" d="M248,16.2h1.4v6.5H248V16.2z"/>
		<path class="st4" d="M252.6,17.5h-2v-1.3h5.4v1.3h-2v5.2h-1.4V17.5z"/>
		<path class="st4" d="M257.1,16.2h4.9v1.3h-3.5v1.3h3.1v1.3h-3.1v1.4h3.5v1.3h-5V16.2z"/>
		<path class="st4" d="M262.9,21.8l0.8-1c0.6,0.5,1.2,0.8,1.9,0.8c0.6,0,0.9-0.2,0.9-0.6v0c0-0.4-0.2-0.5-1.3-0.8
			c-1.3-0.3-2.2-0.7-2.2-2v0c0-1.2,0.9-2,2.3-2c0.9,0,1.8,0.3,2.4,0.8l-0.7,1.1c-0.6-0.4-1.1-0.6-1.7-0.6c-0.5,0-0.8,0.3-0.8,0.6v0
			c0,0.4,0.3,0.6,1.4,0.9c1.3,0.3,2.1,0.8,2.1,2v0c0,1.3-1,2-2.4,2C264.7,22.8,263.7,22.5,262.9,21.8z"/>
	</g>
	<g class="st3">
		<path class="st4" d="M219.5,30.8L219.5,30.8c0-1.9,1.4-3.4,3.4-3.4c1.2,0,2,0.4,2.6,1l-0.9,1c-0.5-0.5-1-0.7-1.7-0.7
			c-1.1,0-1.9,0.9-1.9,2v0c0,1.1,0.8,2,1.9,2c0.7,0,1.2-0.3,1.7-0.8l0.9,0.9c-0.7,0.7-1.4,1.2-2.7,1.2
			C220.9,34.1,219.5,32.6,219.5,30.8z"/>
		<path class="st4" d="M226.6,27.5h2.5c2,0,3.5,1.4,3.5,3.2v0c0,1.8-1.4,3.3-3.5,3.3h-2.5V27.5z M229.2,32.7c1.2,0,2-0.8,2-1.9v0
			c0-1.2-0.8-2-2-2h-1.1v3.9H229.2z"/>
		<path class="st4" d="M233.9,27.5h1.5l1.7,2.8l1.7-2.8h1.5V34H239v-4.2l-1.8,2.8h0l-1.8-2.8V34h-1.4V27.5z"/>
		<path class="st4" d="M243.8,30.7l-2.2-3.2h1.7l1.4,2.1l1.4-2.1h1.6l-2.2,3.2l2.3,3.3H246l-1.5-2.2l-1.5,2.2h-1.6L243.8,30.7z"/>
	</g>
</g>
</svg>
